# xmcd CD database file
#
# Track frame offsets:
#	150
#	13865
#	29125
#	53060
#	68317
#	79070
#	91702
#	102255
#	117487
#	129362
#
# Disc length: 1877 seconds
#
# Revision: 7
# Processed by: cddbd v1.5.2PL0 Copyright (c) Steve Scherf et al.
# Submitted via: CDex 1.51
#
DISCID=7807530a
DTITLE=David Allan Coe - Greatest Hits
DYEAR=1978
DGENRE=Country
TTITLE0=Divers Do It Deeper
TTITLE1=Long Haired Redneck
TTITLE2=You Never Even Called Me By My Name
TTITLE3=Willie, Waylon, and Me
TTITLE4=A Sad Country Song
TTITLE5=Would You Be My Lady
TTITLE6=Just To Prove My Love For You
TTITLE7=Lately I've Been Thinking Too Much Lately
TTITLE8=Would You Lay With Me (In a Field of Stone)
TTITLE9=Face to Face
EXTD=YEAR: 1978
EXTT0=
EXTT1=
EXTT2=
EXTT3=
EXTT4=
EXTT5=
EXTT6=
EXTT7=
EXTT8=
EXTT9=
PLAYORDER=
